<svg width="571" height="105" viewBox="0 0 571 105" fill="none" xmlns="http://www.w3.org/2000/svg">
<path d="M7.704 14.5793L0.31842 13.3324V7.38558H31.0117V13.3324L21.8037 14.5793V71.8415L42.3299 70.9783L48.3726 53.0419L56.1419 54.097L53.1685 78.6516H0.126587V72.8966L7.704 71.9374V14.5793Z" fill="white"/>
<path d="M74.9123 16.5936C72.6103 16.5936 70.7879 15.9222 69.4451 14.5793C68.1022 13.2365 67.4308 11.51 67.4308 9.39983C67.4308 6.96994 68.1981 4.95569 69.7328 3.35708C71.2675 1.75847 73.3137 0.959166 75.8715 0.959166C78.4292 0.959166 80.3795 1.66256 81.7224 3.06933C83.0652 4.41217 83.7366 6.10669 83.7366 8.15292C83.7366 10.7107 82.9693 12.7569 81.4346 14.2916C79.9 15.8262 77.7578 16.5936 75.0082 16.5936H74.9123ZM69.8287 34.4341L63.0186 32.6116V26.1852L80.5714 24.0751H80.7632L83.4489 25.9934V72.1293L89.8753 72.8966V78.6516H63.1146V72.8966L69.8287 72.0334V34.4341Z" fill="white"/>
<path d="M121.689 104.549C113.12 104.549 106.918 103.206 103.081 100.521C99.2444 97.8349 97.3261 94.1901 97.3261 89.5861C97.3261 86.9644 98.1893 84.4705 99.9158 82.1046C101.706 79.8026 103.848 78.0761 106.342 76.9251C103.401 75.1986 101.93 72.449 101.93 68.6763C101.93 66.5022 102.633 64.456 104.04 62.5376C105.447 60.5553 107.269 59.0207 109.507 57.9336C105.991 56.5908 103.369 54.5446 101.642 51.795C99.9158 49.0454 99.0526 45.7842 99.0526 42.0115C99.0526 38.3666 100.108 35.2014 102.218 32.5157C104.392 29.7661 107.269 27.656 110.85 26.1852C114.495 24.7145 118.428 23.9791 122.648 23.9791C130.13 23.9791 135.693 25.4179 139.338 28.2954C140.169 27.2083 141.576 26.1852 143.558 25.2261C145.54 24.2669 147.586 23.7873 149.697 23.7873H153.054V34.2422H143.174C144.133 36.2884 144.613 38.4626 144.613 40.7646C144.677 46.5835 142.631 51.2514 138.474 54.7684C134.318 58.2214 128.627 59.9479 121.401 59.9479C118.396 59.9479 115.87 59.7241 113.824 59.2765C113.184 60.1077 112.673 61.003 112.289 61.9621C111.969 62.8573 111.809 63.6566 111.809 64.36C111.809 66.4702 112.545 67.9089 114.016 68.6763C115.55 69.4436 118.268 69.8273 122.168 69.8273H132.432C145.476 69.8273 151.999 74.5592 151.999 84.0229C151.999 87.9875 150.592 91.5364 147.778 94.6697C144.965 97.803 141.224 100.233 136.556 101.959C131.888 103.686 126.932 104.549 121.689 104.549ZM122.36 54.001C128.307 54.001 131.281 49.9406 131.281 41.8196C131.281 37.6633 130.513 34.6259 128.979 32.7076C127.508 30.7253 125.238 29.7341 122.168 29.7341C119.163 29.7341 116.829 30.7253 115.167 32.7076C113.568 34.6259 112.769 37.5354 112.769 41.436C112.769 49.8127 115.966 54.001 122.36 54.001ZM123.128 97.9308C127.156 97.9308 130.641 96.9397 133.583 94.9574C136.524 93.0391 137.995 90.3534 137.995 86.9004C137.995 84.1508 137.259 82.1686 135.789 80.9536C134.382 79.7387 131.824 79.1312 128.115 79.1312H117.66C116.062 79.1312 114.591 79.0353 113.248 78.8434C111.522 81.1454 110.658 83.8951 110.658 87.0923C110.658 90.6092 111.618 93.2949 113.536 95.1493C115.454 97.0036 118.652 97.9308 123.128 97.9308Z" fill="white"/>
<path d="M164.378 8.53658L157.089 7.28966V2.11017L174.929 0H175.217L177.711 1.82241L177.807 23.2118L177.135 31.5566C179.118 29.7661 181.803 28.1036 185.192 26.5689C188.645 25.0342 192.258 24.2669 196.031 24.2669C200.059 24.2669 203.193 25.0342 205.431 26.5689C207.669 28.0396 209.235 30.3096 210.131 33.379C211.026 36.4483 211.474 40.5407 211.474 45.6563V72.0334L217.612 72.8966V78.6516H192.386V72.8966L197.949 72.0334V45.6563C197.949 42.3312 197.725 39.7414 197.278 37.8871C196.83 36.0327 195.999 34.6579 194.784 33.7626C193.633 32.8674 191.907 32.4198 189.605 32.4198C187.622 32.4198 185.576 32.8994 183.466 33.8586C181.42 34.7538 179.597 35.8408 177.999 37.1197V72.0334L183.85 72.8966V78.6516H159.007V72.8966L164.378 72.1293V8.53658Z" fill="white"/>
<path d="M241.968 79.5149C237.939 79.5149 234.966 78.5877 233.047 76.7333C231.129 74.8789 230.17 71.9375 230.17 67.909V32.7076H223.935V27.7199C224.447 27.5281 225.374 27.2083 226.717 26.7607C228.06 26.2492 229.083 25.8335 229.786 25.5138C230.873 24.6825 231.8 23.2438 232.568 21.1976C233.143 19.8547 234.198 16.5296 235.733 11.2222H243.406L243.79 25.322H258.465V32.7076H243.886V59.6601C243.886 63.241 243.982 65.7668 244.174 67.2375C244.365 68.7083 244.781 69.6674 245.421 70.115C246.06 70.4987 247.179 70.6905 248.778 70.6905C250.376 70.6905 252.039 70.5307 253.765 70.2109C255.492 69.8273 256.93 69.3797 258.081 68.8681L259.904 74.2394C258.113 75.5823 255.492 76.7972 252.039 77.8843C248.586 78.9713 245.229 79.5149 241.968 79.5149Z" fill="white"/>
<path d="M273.831 14.5793L266.733 13.3324V7.38558H295.892V13.3324L287.835 14.5793V38.6544H316.994V14.5793L309.608 13.3324V7.38558H338.383V13.3324L331.094 14.5793V71.9374L338.383 72.8966V78.6516H309.512V72.8966L316.994 71.9374V45.9441H287.835V71.9374L295.892 72.8966V78.6516H266.542V72.8966L273.831 71.9374V14.5793Z" fill="white"/>
<path d="M348.547 52.0827C348.547 46.0719 349.73 40.9564 352.096 36.7361C354.525 32.5157 357.755 29.3505 361.783 27.2403C365.812 25.0662 370.192 23.9791 374.924 23.9791C382.981 23.9791 389.183 26.473 393.531 31.4606C397.944 36.3844 400.15 43.0985 400.15 51.6031C400.15 57.6779 398.935 62.8573 396.505 67.1416C394.139 71.3619 390.942 74.5272 386.913 76.6374C382.949 78.6836 378.568 79.7067 373.773 79.7067C365.78 79.7067 359.577 77.2448 355.165 72.3211C350.753 67.3335 348.547 60.5873 348.547 52.0827ZM374.54 73.4721C381.766 73.4721 385.379 66.5022 385.379 52.5623C385.379 45.2726 384.515 39.7414 382.789 35.9687C381.062 32.1321 378.249 30.2137 374.348 30.2137C366.931 30.2137 363.222 37.1837 363.222 51.1236C363.222 58.4132 364.117 63.9764 365.907 67.813C367.762 71.5858 370.639 73.4721 374.54 73.4721Z" fill="white"/>
<path d="M453.854 79.6108C451.744 79.6108 450.209 79.1632 449.25 78.2679C448.291 77.3727 447.811 76.0299 447.811 74.2394V71.6497C446.085 73.7599 443.655 75.6462 440.522 77.3088C437.388 78.9074 434.255 79.7067 431.122 79.7067C424.983 79.7067 420.603 78.1401 417.981 75.0068C415.36 71.8096 414.049 66.5661 414.049 59.2765V32.228L409.253 30.8851V25.4179L425.559 24.171H425.655L427.573 25.5138V59.2765C427.573 63.9444 428.148 67.2056 429.299 69.06C430.45 70.9143 432.593 71.8415 435.726 71.8415C439.499 71.8415 443.015 70.3708 446.277 67.4294V32.228L439.85 30.7892V25.4179L457.211 24.171H457.403L459.705 25.5138V72.7048H465.076L464.98 78.172C464.725 78.236 463.542 78.4918 461.431 78.9394C459.321 79.387 456.795 79.6108 453.854 79.6108Z" fill="white"/>
<path d="M484.228 70.7865C484.74 71.5538 485.891 72.2891 487.681 72.9925C489.535 73.632 491.39 73.9517 493.244 73.9517C496.25 73.9517 498.488 73.3442 499.958 72.1293C501.493 70.8504 502.26 69.1878 502.26 67.1416C502.26 65.0315 501.333 63.3369 499.479 62.058C497.624 60.7152 494.491 59.0846 490.079 57.1663L487.393 56.0153C482.981 54.1609 479.688 51.9228 477.514 49.3011C475.34 46.6794 474.253 43.2904 474.253 39.134C474.253 36.2565 475.116 33.6987 476.843 31.4606C478.569 29.1586 480.999 27.3682 484.132 26.0893C487.265 24.8104 490.878 24.171 494.971 24.171C497.976 24.171 500.534 24.3628 502.644 24.7465C504.818 25.1301 507.088 25.6417 509.454 26.2812C510.733 26.7288 511.692 26.9845 512.332 27.0485V39.6136H504.754L502.548 32.3239C502.164 31.6844 501.301 31.1089 499.958 30.5974C498.616 30.0858 497.081 29.8301 495.354 29.8301C492.733 29.8301 490.623 30.4056 489.024 31.5566C487.489 32.6436 486.722 34.1783 486.722 36.1606C486.722 37.951 487.265 39.4537 488.353 40.6686C489.44 41.8196 490.622 42.7149 491.901 43.3543C493.18 43.9937 495.546 45.0488 498.999 46.5196C502.452 47.9903 505.298 49.3971 507.536 50.7399C509.838 52.0827 511.724 53.8412 513.195 56.0153C514.73 58.1255 515.497 60.7152 515.497 63.7845C515.497 68.5164 513.643 72.3531 509.934 75.2945C506.225 78.236 500.886 79.7067 493.916 79.7067C490.654 79.7067 487.713 79.4189 485.091 78.8434C482.534 78.2679 479.56 77.5006 476.171 76.5414L474.061 75.87V63.209H482.022L484.228 70.7865Z" fill="white"/>
<path d="M549.217 79.7067C540.776 79.7067 534.478 77.2448 530.321 72.3211C526.229 67.3335 524.183 60.5553 524.183 51.9868C524.183 46.2318 525.238 41.2441 527.348 37.0238C529.522 32.8035 532.559 29.5743 536.46 27.3362C540.361 25.0982 544.869 23.9791 549.984 23.9791C556.379 23.9791 561.302 25.6737 564.755 29.0627C568.208 32.3878 569.999 37.1517 570.127 43.3543C570.127 47.5746 569.871 50.7079 569.359 52.7541H538.186C538.442 58.5731 539.817 63.1131 542.311 66.3743C544.805 69.5715 548.354 71.1701 552.958 71.1701C555.451 71.1701 558.009 70.7545 560.631 69.9232C563.316 69.0919 565.427 68.1008 566.961 66.9498L569.359 72.2252C567.633 74.0796 564.819 75.8061 560.919 77.4047C557.082 78.9394 553.181 79.7067 549.217 79.7067ZM556.698 46.9991C556.826 45.2087 556.89 43.8339 556.89 42.8747C556.89 34.3701 554.045 30.1178 548.354 30.1178C545.22 30.1178 542.79 31.3647 541.064 33.8586C539.337 36.3524 538.378 40.7326 538.186 46.9991H556.698Z" fill="white"/>
</svg>
